{
    "asset" : {
        "generator" : "Khronos glTF Blender I/O v3.3.32",
        "version" : "2.0"
    },
    "scene" : 0,
    "scenes" : [
        {
            "name" : "Scene",
            "nodes" : [
                0
            ]
        }
    ],
    "nodes" : [
        {
            "mesh" : 0,
            "name" : "TwistedTorus"
        }
    ],
    "animations" : [
        {
            "channels" : [
                {
                    "sampler" : 0,
                    "target" : {
                        "node" : 0,
                        "path" : "rotation"
                    }
                }
            ],
            "name" : "TwistedTorusAction",
            "samplers" : [
                {
                    "input" : 3,
                    "interpolation" : "LINEAR",
                    "output" : 4
                }
            ]
        }
    ],
    "materials" : [
        {
            "doubleSided" : true,
            "name" : "\u6750\u8d28",
            "pbrMetallicRoughness" : {
                "baseColorFactor" : [
                    0.3295050859451294,
                    0.2884750962257385,
                    1,
                    1
                ],
                "metallicFactor" : 0,
                "roughnessFactor" : 0.03886011242866516
            }
        }
    ],
    "meshes" : [
        {
            "name" : "TwistedTorus",
            "primitives" : [
                {
                    "attributes" : {
                        "POSITION" : 0,
                        "NORMAL" : 1
                    },
                    "indices" : 2,
                    "material" : 0
                }
            ]
        }
    ],
    "accessors" : [
        {
            "bufferView" : 0,
            "componentType" : 5126,
            "count" : 36864,
            "max" : [
                1.2050018310546875,
                1.2346274852752686,
                1.0530892610549927
            ],
            "min" : [
                -1.2055542469024658,
                -1.2346274852752686,
                -1.0742597579956055
            ],
            "type" : "VEC3"
        },
        {
            "bufferView" : 1,
            "componentType" : 5126,
            "count" : 36864,
            "type" : "VEC3"
        },
        {
            "bufferView" : 2,
            "componentType" : 5123,
            "count" : 221184,
            "type" : "SCALAR"
        },
        {
            "bufferView" : 3,
            "componentType" : 5126,
            "count" : 150,
            "max" : [
                5
            ],
            "min" : [
                0.03333333333333333
            ],
            "type" : "SCALAR"
        },
        {
            "bufferView" : 4,
            "componentType" : 5126,
            "count" : 150,
            "type" : "VEC4"
        }
    ],
    "bufferViews" : [
        {
            "buffer" : 0,
            "byteLength" : 442368,
            "byteOffset" : 0,
            "target" : 34962
        },
        {
            "buffer" : 0,
            "byteLength" : 442368,
            "byteOffset" : 442368,
            "target" : 34962
        },
        {
            "buffer" : 0,
            "byteLength" : 442368,
            "byteOffset" : 884736,
            "target" : 34963
        },
        {
            "buffer" : 0,
            "byteLength" : 600,
            "byteOffset" : 1327104
        },
        {
            "buffer" : 0,
            "byteLength" : 2400,
            "byteOffset" : 1327704
        }
    ],
    "buffers" : [
        {
            "byteLength" : 1330104,
            "uri" : "data:application/octet-stream;base64,"
        }
    ]
}
